<svg width="1440" height="845" viewBox="0 0 1440 800" fill="none" xmlns="http://www.w3.org/2000/svg">
<rect width="1440" height="845" fill="#E5E5E5"/>
<g clip-path="url(#clip0)">
<rect width="1440" height="845" fill="#20C1E4"/>
<path d="M0 748C0 748 138.5 533 419 533C548 533 991.5 517.345 1174 384C1348.5 256.5 1363 0 1363 0H1440V900.5H0V748Z" fill="#8CEAFF"/>
<ellipse cx="-72.4368" cy="327.313" rx="204.353" ry="265.859" transform="rotate(25 -72.4368 327.313)" fill="#8CEAFF"/>
<path d="M1337.5 -18.1942C1337.5 185.875 1127.46 399.306 829.5 399.306C531.542 399.306 236.534 208.375 236.534 4.30579C236.534 -199.763 478.076 -365.194 776.034 -365.194C1073.99 -365.194 1337.5 -222.263 1337.5 -18.1942Z" fill="#348FA4"/>
<path d="M1284 493.5C1652.5 383.5 1440 40.5 1440 40.5V845H788C788 845 915.5 603.5 1284 493.5Z" fill="#C0F4FF"/>
</g>
<defs>
<clipPath id="clip0">
<rect width="1440" height="845" fill="white"/>
</clipPath>
</defs>
</svg>
